<?xml version="1.0" standalone="no"?><!-- Generator: Gravit.io --><svg xmlns="http://www.w3.org/2000/svg" xmlns:xlink="http://www.w3.org/1999/xlink" style="isolation:isolate" viewBox="0 0 963 963" width="963" height="963"><defs><clipPath id="_clipPath_nl8RTjV7PgCzgRG9e6LpYnycvxhRuogw"><rect width="963" height="963"/></clipPath></defs><g clip-path="url(#_clipPath_nl8RTjV7PgCzgRG9e6LpYnycvxhRuogw)"><g id="Group"><path d=" M 481.5 963 C 747.4 963 963 747.4 963 481.5 C 963 215.6 747.4 0 481.5 0 C 215.6 0 0 215.6 0 481.5 C 0 747.4 215.6 963 481.5 963 Z  M 543.3 271.4 L 776.5 484.801 C 795.9 502.6 805.7 526.901 805.7 551.199 C 805.7 572.9 797.9 594.699 782.099 611.9 C 748.5 648.6 691.6 651.1 654.9 617.5 L 482.6 459.8 L 305.3 622.4 C 268.7 656 211.7 653.5 178.1 616.9 C 144.5 580.3 147 523.3 183.6 489.699 L 421.7 271.4 C 456.2 239.9 508.9 239.9 543.3 271.4 Z " fill="rgb(255,113,65)"/></g></g></svg>